<svg width="33" height="33" viewBox="0 0 33 33" fill="none" xmlns="http://www.w3.org/2000/svg">
<g clip-path="url(#clip0_45_1713)">
<g clip-path="url(#clip1_45_1713)">
<path d="M1.5 12.8333V22.8333M16.5 4.5V9.5M13.1667 4.5H19.8333M4.83333 17.8333H1.5M6.5 12.8333H9.83333L13.1667 9.5H18.8033C19.1128 9.50017 19.4161 9.58647 19.6792 9.74925C19.9424 9.91204 20.155 10.1449 20.2933 10.4217L22.7067 15.245C22.845 15.5218 23.0576 15.7546 23.3208 15.9174C23.5839 16.0802 23.8872 16.1665 24.1967 16.1667H26.5V12.8333H29.8333C30.2754 12.8333 30.6993 13.0089 31.0118 13.3215C31.3244 13.634 31.5 14.058 31.5 14.5V24.5C31.5 24.942 31.3244 25.366 31.0118 25.6785C30.6993 25.9911 30.2754 26.1667 29.8333 26.1667H26.5V22.8333H21.5V26.1667C21.5 26.6087 21.3244 27.0326 21.0118 27.3452C20.6993 27.6577 20.2754 27.8333 19.8333 27.8333H14.0583C13.784 27.8334 13.5139 27.7657 13.272 27.6363C13.0301 27.5069 12.8239 27.3199 12.6717 27.0917L9.83333 22.8333H6.5V12.8333Z" stroke="black" stroke-width="2" stroke-linecap="round" stroke-linejoin="round"/>
</g>
</g>
<defs>
<clipPath id="clip0_45_1713">
<rect width="32" height="32" fill="white" transform="translate(0.5 0.5)"/>
</clipPath>
<clipPath id="clip1_45_1713">
<rect width="32" height="32" fill="white" transform="translate(0.5 0.5)"/>
</clipPath>
</defs>
</svg>
