<svg width="33" height="33" viewBox="0 0 33 33" fill="none" xmlns="http://www.w3.org/2000/svg">
<g clip-path="url(#clip0_45_1718)">
<path d="M6.5 5.5C6.5 5.23478 6.60536 4.98043 6.79289 4.79289C6.98043 4.60536 7.23478 4.5 7.5 4.5H17.5C17.7652 4.5 18.0196 4.60536 18.2071 4.79289C18.3946 4.98043 18.5 5.23478 18.5 5.5V15.5C18.5 15.7652 18.3946 16.0196 18.2071 16.2071C18.0196 16.3946 17.7652 16.5 17.5 16.5H7.5C7.23478 16.5 6.98043 16.3946 6.79289 16.2071C6.60536 16.0196 6.5 15.7652 6.5 15.5V5.5Z" fill="black"/>
<path d="M2.5 4.5C2.5 3.43913 2.92143 2.42172 3.67157 1.67157C4.42172 0.921427 5.43913 0.5 6.5 0.5L18.5 0.5C19.5609 0.5 20.5783 0.921427 21.3284 1.67157C22.0786 2.42172 22.5 3.43913 22.5 4.5V20.5C23.5609 20.5 24.5783 20.9214 25.3284 21.6716C26.0786 22.4217 26.5 23.4391 26.5 24.5V25.5C26.5 25.7652 26.6054 26.0196 26.7929 26.2071C26.9804 26.3946 27.2348 26.5 27.5 26.5C27.7652 26.5 28.0196 26.3946 28.2071 26.2071C28.3946 26.0196 28.5 25.7652 28.5 25.5V16.5H27.5C27.2348 16.5 26.9804 16.3946 26.7929 16.2071C26.6054 16.0196 26.5 15.7652 26.5 15.5V9.25C26.5 8.98478 26.6054 8.73043 26.7929 8.54289C26.9804 8.35536 27.2348 8.25 27.5 8.25H30.49C30.468 7.298 30.384 6.462 30.088 5.806C29.9295 5.42457 29.6535 5.10366 29.3 4.89C28.932 4.67 28.372 4.5 27.5 4.5C27.2348 4.5 26.9804 4.39464 26.7929 4.20711C26.6054 4.01957 26.5 3.76522 26.5 3.5C26.5 3.23478 26.6054 2.98043 26.7929 2.79289C26.9804 2.60536 27.2348 2.5 27.5 2.5C28.628 2.5 29.568 2.72 30.324 3.172C31.09 3.628 31.592 4.274 31.912 4.986C32.502 6.296 32.5 7.916 32.5 9.148V15.498C32.5003 15.6295 32.4746 15.7597 32.4245 15.8813C32.3743 16.0029 32.3007 16.1133 32.2078 16.2064C32.1149 16.2995 32.0046 16.3733 31.8831 16.4237C31.7617 16.4741 31.6315 16.5 31.5 16.5H30.5V25.5C30.5 26.2956 30.1839 27.0587 29.6213 27.6213C29.0587 28.1839 28.2956 28.5 27.5 28.5C26.7044 28.5 25.9413 28.1839 25.3787 27.6213C24.8161 27.0587 24.5 26.2956 24.5 25.5V24.5C24.5 23.9696 24.2893 23.4609 23.9142 23.0858C23.5391 22.7107 23.0304 22.5 22.5 22.5V30.5H23.5C23.7652 30.5 24.0196 30.6054 24.2071 30.7929C24.3946 30.9804 24.5 31.2348 24.5 31.5C24.5 31.7652 24.3946 32.0196 24.2071 32.2071C24.0196 32.3946 23.7652 32.5 23.5 32.5H1.5C1.23478 32.5 0.98043 32.3946 0.792893 32.2071C0.605357 32.0196 0.5 31.7652 0.5 31.5C0.5 31.2348 0.605357 30.9804 0.792893 30.7929C0.98043 30.6054 1.23478 30.5 1.5 30.5H2.5V4.5ZM20.5 4.5C20.5 3.96957 20.2893 3.46086 19.9142 3.08579C19.5391 2.71071 19.0304 2.5 18.5 2.5H6.5C5.96957 2.5 5.46086 2.71071 5.08579 3.08579C4.71071 3.46086 4.5 3.96957 4.5 4.5V30.5H20.5V4.5Z" fill="black"/>
</g>
<defs>
<clipPath id="clip0_45_1718">
<rect width="32" height="32" fill="white" transform="translate(0.5 0.5)"/>
</clipPath>
</defs>
</svg>
