<svg width="36" height="32" viewBox="0 0 36 32" fill="none" xmlns="http://www.w3.org/2000/svg">
<path d="M7.79167 10.8704C9.4025 10.8704 10.7083 9.70962 10.7083 8.27777C10.7083 6.84592 9.4025 5.68518 7.79167 5.68518C6.18084 5.68518 4.875 6.84592 4.875 8.27777C4.875 9.70962 6.18084 10.8704 7.79167 10.8704Z" stroke="black" stroke-width="2" stroke-linecap="round" stroke-linejoin="round"/>
<path d="M18 10.8704C19.6108 10.8704 20.9167 9.70962 20.9167 8.27777C20.9167 6.84592 19.6108 5.68518 18 5.68518C16.3892 5.68518 15.0833 6.84592 15.0833 8.27777C15.0833 9.70962 16.3892 10.8704 18 10.8704Z" stroke="black" stroke-width="2" stroke-linecap="round" stroke-linejoin="round"/>
<path d="M28.2083 10.8704C29.8192 10.8704 31.125 9.70962 31.125 8.27777C31.125 6.84592 29.8192 5.68518 28.2083 5.68518C26.5975 5.68518 25.2917 6.84592 25.2917 8.27777C25.2917 9.70962 26.5975 10.8704 28.2083 10.8704Z" stroke="black" stroke-width="2" stroke-linecap="round" stroke-linejoin="round"/>
<path d="M7.79167 26.4259C9.4025 26.4259 10.7083 25.2652 10.7083 23.8333C10.7083 22.4015 9.4025 21.2407 7.79167 21.2407C6.18084 21.2407 4.875 22.4015 4.875 23.8333C4.875 25.2652 6.18084 26.4259 7.79167 26.4259Z" stroke="black" stroke-width="2" stroke-linecap="round" stroke-linejoin="round"/>
<path d="M18 26.4259C19.6108 26.4259 20.9167 25.2652 20.9167 23.8333C20.9167 22.4015 19.6108 21.2407 18 21.2407C16.3892 21.2407 15.0833 22.4015 15.0833 23.8333C15.0833 25.2652 16.3892 26.4259 18 26.4259Z" stroke="black" stroke-width="2" stroke-linecap="round" stroke-linejoin="round"/>
<path d="M7.79166 10.8704V21.2407M18 10.8704V21.2407M28.2083 10.8704V13.463C28.2083 14.1506 27.901 14.81 27.3541 15.2962C26.8071 15.7824 26.0652 16.0555 25.2917 16.0555H7.79166" stroke="black" stroke-width="2" stroke-linecap="round" stroke-linejoin="round"/>
</svg>
