<svg width="25" height="25" viewBox="0 0 25 25" fill="none" xmlns="http://www.w3.org/2000/svg">
<path d="M11.2886 0.685004C5.55055 0.685004 0.882812 5.35275 0.882812 11.0908C0.882812 16.8289 5.55055 21.4966 11.2886 21.4966C13.0427 21.4966 14.7671 21.0804 16.2239 20.2776C16.3406 20.4181 16.47 20.5474 16.6104 20.6641L19.5835 23.6372C19.858 23.9461 20.1928 24.1957 20.5673 24.3705C20.9417 24.5453 21.348 24.6418 21.761 24.654C22.1741 24.6661 22.5853 24.5937 22.9694 24.4412C23.3535 24.2887 23.7024 24.0593 23.9946 23.7671C24.2868 23.4748 24.5162 23.126 24.6687 22.7419C24.8213 22.3578 24.8937 21.9466 24.8815 21.5335C24.8693 21.1204 24.7729 20.7142 24.598 20.3397C24.4232 19.9653 24.1737 19.6305 23.8648 19.356L20.8917 16.3829C20.7468 16.238 20.5874 16.1085 20.416 15.9964C21.2187 14.5396 21.7241 12.8449 21.7241 11.0611C21.7241 5.32302 17.0564 0.655273 11.3183 0.655273L11.2886 0.685004ZM11.2886 3.65809C15.4212 3.65809 18.7213 6.95821 18.7213 11.0908C18.7213 13.053 18.0078 14.8666 16.7591 16.2045C16.7294 16.2342 16.6996 16.264 16.6699 16.2937C16.5295 16.4104 16.4001 16.5398 16.2834 16.6802C14.9752 17.8694 13.1914 18.5532 11.2589 18.5532C7.12629 18.5532 3.82617 15.2531 3.82617 11.1205C3.82617 6.98794 7.12629 3.68782 11.2589 3.68782L11.2886 3.65809Z" fill="black"/>
</svg>
