<svg width="10" height="10" viewBox="0 0 10 10" fill="none" xmlns="http://www.w3.org/2000/svg">
<path d="M4.99999 6.33335C5.73637 6.33335 6.33332 5.7364 6.33332 5.00002C6.33332 4.26364 5.73637 3.66669 4.99999 3.66669C4.26361 3.66669 3.66666 4.26364 3.66666 5.00002C3.66666 5.7364 4.26361 6.33335 4.99999 6.33335Z" fill="white"/>
<path d="M3.75001 0.833313L2.98751 1.66665H1.66668C1.20834 1.66665 0.833344 2.04165 0.833344 2.49998V7.49998C0.833344 7.95831 1.20834 8.33331 1.66668 8.33331H8.33334C8.79168 8.33331 9.16668 7.95831 9.16668 7.49998V2.49998C9.16668 2.04165 8.79168 1.66665 8.33334 1.66665H7.01251L6.25001 0.833313H3.75001ZM5.00001 7.08331C3.85001 7.08331 2.91668 6.14998 2.91668 4.99998C2.91668 3.84998 3.85001 2.91665 5.00001 2.91665C6.15001 2.91665 7.08334 3.84998 7.08334 4.99998C7.08334 6.14998 6.15001 7.08331 5.00001 7.08331Z" fill="white"/>
</svg>
