<svg width="36" height="28" viewBox="0 0 36 28" fill="none" xmlns="http://www.w3.org/2000/svg">
<g clip-path="url(#clip0_209_2)">
<path d="M11.6372 3.9007C12.0004 3.98367 12.3125 4.1948 12.505 4.48765C12.6975 4.7805 12.7545 5.13108 12.6635 5.46226L7.01648 26.06C6.97414 26.2265 6.89587 26.3836 6.78623 26.5222C6.67659 26.6608 6.53778 26.7782 6.37789 26.8674C6.218 26.9566 6.04024 27.0158 5.85497 27.0417C5.6697 27.0676 5.48063 27.0596 5.29879 27.0181C5.11696 26.9766 4.94599 26.9026 4.79588 26.8003C4.64576 26.6979 4.51949 26.5693 4.42444 26.422C4.32939 26.2747 4.26745 26.1116 4.24225 25.9423C4.21705 25.7729 4.22908 25.6007 4.27765 25.4356L9.92471 4.83789C9.96961 4.67379 10.0495 4.51937 10.1599 4.38345C10.2703 4.24752 10.409 4.13276 10.568 4.04573C10.727 3.95869 10.9033 3.90109 11.0868 3.8762C11.2702 3.85132 11.4573 3.85964 11.6372 3.9007V3.9007ZM23.9577 4.8366L29.6047 25.4343C29.6533 25.5994 29.6653 25.7716 29.6401 25.941C29.6149 26.1104 29.553 26.2734 29.4579 26.4208C29.3629 26.5681 29.2366 26.6966 29.0865 26.799C28.9364 26.9013 28.7654 26.9754 28.5836 27.0168C28.4017 27.0583 28.2127 27.0663 28.0274 27.0404C27.8421 27.0145 27.6644 26.9553 27.5045 26.8661C27.3446 26.7769 27.2058 26.6596 27.0961 26.5209C26.9865 26.3823 26.9082 26.2252 26.8659 26.0587L21.2188 5.46097C21.1703 5.2959 21.1582 5.12365 21.1834 4.95429C21.2086 4.78493 21.2706 4.62183 21.3656 4.47453C21.4607 4.32722 21.5869 4.19865 21.7371 4.09631C21.8872 3.99397 22.0581 3.91992 22.24 3.87846C22.4218 3.83701 22.6109 3.82899 22.7961 3.85487C22.9814 3.88075 23.1592 3.94001 23.3191 4.0292C23.479 4.11839 23.6178 4.23572 23.7274 4.37434C23.837 4.51296 23.9153 4.67011 23.9577 4.8366V4.8366ZM16.9412 21.8851C17.287 21.8851 17.6207 22.0009 17.8791 22.2104C18.1375 22.4199 18.3026 22.7086 18.3431 23.0218L18.3529 23.1724V25.7471C18.3525 26.0753 18.2148 26.3909 17.9677 26.6294C17.7207 26.868 17.3831 27.0116 17.0239 27.0308C16.6647 27.0501 16.311 26.9435 16.0351 26.7329C15.7591 26.5223 15.5818 26.2236 15.5393 25.8978L15.5294 25.7471V23.1724C15.5294 22.831 15.6782 22.5035 15.9429 22.2621C16.2077 22.0207 16.5668 21.8851 16.9412 21.8851V21.8851ZM16.9412 12.8736C17.3156 12.8736 17.6747 13.0092 17.9395 13.2506C18.2042 13.4921 18.3529 13.8195 18.3529 14.1609V16.7356C18.3529 17.0771 18.2042 17.4045 17.9395 17.6459C17.6747 17.8874 17.3156 18.023 16.9412 18.023C16.5668 18.023 16.2077 17.8874 15.9429 17.6459C15.6782 17.4045 15.5294 17.0771 15.5294 16.7356V14.1609C15.5294 13.8195 15.6782 13.4921 15.9429 13.2506C16.2077 13.0092 16.5668 12.8736 16.9412 12.8736V12.8736ZM16.9412 3.86208C17.287 3.86212 17.6207 3.97788 17.8791 4.18741C18.1375 4.39694 18.3026 4.68566 18.3431 4.99881L18.3529 5.14943V7.72414C18.3525 8.05227 18.2148 8.36786 17.9677 8.60646C17.7207 8.84505 17.3831 8.98863 17.0239 9.00786C16.6647 9.02709 16.311 8.92052 16.0351 8.70992C15.7591 8.49932 15.5818 8.20059 15.5393 7.87477L15.5294 7.72414V5.14943C15.5294 4.808 15.6782 4.48056 15.9429 4.23913C16.2077 3.99771 16.5668 3.86208 16.9412 3.86208V3.86208Z" fill="black"/>
</g>
<defs>
<clipPath id="clip0_209_2">
<rect width="36" height="28" fill="white"/>
</clipPath>
</defs>
</svg>
