<svg width="25" height="24" viewBox="0 0 25 24" fill="none" xmlns="http://www.w3.org/2000/svg">
<path d="M21.4175 11.41L12.5875 2.58C12.2175 2.21 11.7075 2 11.1775 2H4.00751C2.90751 2 2.00751 2.9 2.00751 4V11.17C2.00751 11.7 2.21751 12.21 2.59751 12.58L11.4275 21.41C12.2075 22.19 13.4775 22.19 14.2575 21.41L21.4275 14.24C22.2075 13.46 22.2075 12.2 21.4175 11.41ZM12.8375 20L4.00751 11.17V4H11.1775L20.0075 12.83L12.8375 20Z" fill="black"/>
<path d="M6.50751 8C7.33593 8 8.00751 7.32843 8.00751 6.5C8.00751 5.67157 7.33593 5 6.50751 5C5.67908 5 5.00751 5.67157 5.00751 6.5C5.00751 7.32843 5.67908 8 6.50751 8Z" fill="black"/>
</svg>
