<svg width="24" height="24" viewBox="0 0 24 24" fill="none" xmlns="http://www.w3.org/2000/svg">
<path d="M12 0C10.6815 0 9.39253 0.370414 8.2962 1.0644C7.19987 1.75839 6.34539 2.74478 5.84081 3.89884C5.33622 5.0529 5.2042 6.3228 5.46143 7.54794C5.71867 8.77308 6.35361 9.89845 7.28596 10.7817C8.21831 11.665 9.40619 12.2665 10.6994 12.5102C11.9926 12.7539 13.3331 12.6288 14.5512 12.1508C15.7694 11.6728 16.8106 10.8633 17.5431 9.82465C18.2757 8.78603 18.6667 7.56493 18.6667 6.31579C18.6667 4.64074 17.9643 3.03429 16.714 1.84985C15.4638 0.665412 13.7681 0 12 0ZM12 10.1053C11.2089 10.1053 10.4355 9.88301 9.77772 9.46662C9.11992 9.05023 8.60723 8.45839 8.30448 7.76596C8.00173 7.07352 7.92252 6.31159 8.07686 5.5765C8.2312 4.84141 8.61217 4.16619 9.17158 3.63623C9.73099 3.10626 10.4437 2.74535 11.2196 2.59913C11.9956 2.45291 12.7998 2.52796 13.5307 2.81477C14.2616 3.10159 14.8864 3.58729 15.3259 4.21047C15.7654 4.83365 16 5.5663 16 6.31579C16 7.32082 15.5786 8.28469 14.8284 8.99535C14.0783 9.70602 13.0609 10.1053 12 10.1053ZM24 24V22.7368C24 20.3918 23.0167 18.1427 21.2663 16.4845C19.516 14.8263 17.142 13.8947 14.6667 13.8947H9.33334C6.85798 13.8947 4.48401 14.8263 2.73367 16.4845C0.983333 18.1427 3.0811e-06 20.3918 3.0811e-06 22.7368V24H2.66667V22.7368C2.66667 21.0618 3.36905 19.4553 4.61929 18.2709C5.86953 17.0865 7.56523 16.4211 9.33334 16.4211H14.6667C16.4348 16.4211 18.1305 17.0865 19.3807 18.2709C20.631 19.4553 21.3333 21.0618 21.3333 22.7368V24H24Z" fill="black"/>
</svg>
