<svg width="33" height="33" viewBox="0 0 33 33" fill="none" xmlns="http://www.w3.org/2000/svg">
<path d="M30.2285 14.4464L24.5865 13.5771L21.1482 7.96025C20.9677 7.66625 20.7144 7.42381 20.4128 7.25639C20.1111 7.08897 19.7714 7.00223 19.4264 7.00456L5.01656 7.11938C4.60079 7.12289 4.19643 7.25582 3.85968 7.49971C3.52293 7.74359 3.27051 8.08631 3.1375 8.48025L1.5 13.3359V24.5H4.93787C5.20513 25.3687 5.74386 26.1289 6.47498 26.6689C7.20609 27.2089 8.09108 27.5003 9 27.5003C9.90892 27.5003 10.7939 27.2089 11.525 26.6689C12.2561 26.1289 12.7949 25.3687 13.0621 24.5H19.4379C19.7051 25.3687 20.2439 26.1289 20.975 26.6689C21.7061 27.2089 22.5911 27.5003 23.5 27.5003C24.4089 27.5003 25.2939 27.2089 26.025 26.6689C26.7561 26.1289 27.2949 25.3687 27.5621 24.5H31.5V15.9289C31.5016 15.5702 31.374 15.2229 31.1405 14.9507C30.907 14.6784 30.5832 14.4994 30.2285 14.4464ZM14.5 9.04375L19.4424 9.00438L22.1986 13.5073L14.5 13.5046V9.04375ZM5.03256 9.11925L12.5 9.05975V13.5039L3.55506 13.5007L5.03256 9.11925ZM9 25.5C8.55499 25.5 8.11998 25.368 7.74997 25.1208C7.37996 24.8736 7.09157 24.5222 6.92127 24.111C6.75097 23.6999 6.70642 23.2475 6.79323 22.811C6.88005 22.3746 7.09434 21.9737 7.40901 21.659C7.72368 21.3443 8.12459 21.1301 8.56105 21.0432C8.9975 20.9564 9.4499 21.001 9.86104 21.1713C10.2722 21.3416 10.6236 21.63 10.8708 22C11.118 22.37 11.25 22.805 11.25 23.25C11.2493 23.8465 11.0121 24.4184 10.5903 24.8403C10.1684 25.2621 9.59653 25.4993 9 25.5ZM23.5 25.5C23.055 25.5 22.62 25.368 22.25 25.1208C21.88 24.8736 21.5916 24.5222 21.4213 24.111C21.251 23.6999 21.2064 23.2475 21.2932 22.811C21.3801 22.3746 21.5943 21.9737 21.909 21.659C22.2237 21.3443 22.6246 21.1301 23.061 21.0432C23.4975 20.9564 23.9499 21.001 24.361 21.1713C24.7722 21.3416 25.1236 21.63 25.3708 22C25.618 22.37 25.75 22.805 25.75 23.25C25.7493 23.8465 25.5121 24.4184 25.0903 24.8403C24.6684 25.2621 24.0965 25.4993 23.5 25.5ZM29.5 22.5H27.6824C27.5067 21.5186 26.9914 20.6302 26.2269 19.9904C25.4623 19.3505 24.497 18.9999 23.5 18.9999C22.503 18.9999 21.5377 19.3505 20.7731 19.9904C20.0086 20.6302 19.4933 21.5186 19.3176 22.5H13.1824C13.0067 21.5186 12.4914 20.6302 11.7269 19.9904C10.9623 19.3505 9.99701 18.9999 9 18.9999C8.00299 18.9999 7.03774 19.3505 6.27315 19.9904C5.50856 20.6302 4.99333 21.5186 4.81763 22.5H3.5V15.5016L24.1579 15.5347L29.5 16.3577V22.5Z" fill="black"/>
</svg>
